<svg xmlns="http://www.w3.org/2000/svg" width="176" height="176" viewBox="0 0 132 132" preserveAspectRatio="xMidYMid meet" xmlns:v="https://vecta.io/nano"><path d="M54.4 6.1c-3.8 3.6-7.1 5.8-7.9 5.5s-4.8-.8-8.8-1.2c-7.5-.7-7.5-.7-11.1 2.7-3 2.9-3.8 4.6-5.1 10.8-.8 4-1.8 7.7-2.1 8.2-.2.5-3.4 2.5-7 4.5-11 6.1-12.5 10.9-7 22.2L8.9 66l-3.5 7.8C.1 85.5 1.4 89.4 13 95.6c5.2 2.9 7 4.4 7.4 6.3 2.6 13.8 2.7 14 6.3 17.2 3.5 3 3.8 3.1 10.2 2.5 3.6-.4 7.6-.9 8.7-1.2 1.7-.4 3.8.9 8.9 5.5 6.3 5.7 7 6.1 11.6 6.1 4.7 0 5.3-.3 11.5-6.1 3.6-3.3 7.1-5.8 7.9-5.6.7.3 4.4.9 8.3 1.2 5.8.6 7.5.4 10.1-1.1 3.5-2.1 5.6-5.9 6.6-12.4 1.2-7.5 2.1-8.7 9-12.6 7-3.9 10.5-8 10.5-12.4 0-1.4-1.6-5.8-3.5-9.8l-3.4-7.2 3.5-7.7c5.3-11.6 3.9-15.7-7.5-21.9-5.3-2.9-7.1-4.4-7.5-6.3-2.9-14.9-3.1-15.4-7.9-18.6-2.2-1.4-3.9-1.6-9-1.1-3.4.4-7.2 1-8.3 1.2-1.6.4-3.9-1-8.9-5.5C71.2.4 70.5 0 65.9 0c-4.7 0-5.3.3-11.5 6.1zM73 13.4c3.2 3 7 5.8 8.5 6.2 1.4.4 5.9.2 9.8-.3 8.6-1.2 10.1-.1 11.2 7.8 1.2 9 2.8 11.4 11.1 15.9 8.6 4.7 8.8 5.3 4.4 14-3.8 7.5-3.8 10.5 0 18 4.4 8.6 4.2 9.2-4.4 13.9-8.2 4.5-9.9 7-11.1 15.6-.4 2.7-1.3 5.9-2 7.1-1.2 1.9-1.8 1.9-8.7 1.1-4.2-.6-8.8-.7-10.3-.3s-5.3 3.2-8.5 6.2c-3.1 2.9-6.3 5.4-7 5.4s-3.9-2.5-7-5.4c-3.2-3-7-5.8-8.5-6.2-1.4-.4-5.9-.2-9.8.3-8.6 1.2-10.1.1-11.2-7.8-1.2-9-2.8-11.4-11.1-15.9-8.6-4.7-8.8-5.3-4.4-14 3.8-7.4 3.8-10.1 0-18.3-1.6-3.7-3-7.3-3-8.1s3.3-3.3 7.4-5.5c8.2-4.5 9.9-7 11.1-15.6.4-2.8 1.3-5.9 2-7 1.2-1.9 1.8-2 9.3-1.1 9.8 1.1 12 .4 18.8-6.5 2.6-2.7 5.5-4.9 6.3-4.9s4 2.5 7.1 5.4zM46 32.1c-11.6 4.6-12.7 21-1.7 26.3 4.7 2.2 9.5 2 13.5-.4 10-6.1 9.4-20.3-1.1-25-4.7-2.2-7-2.4-10.7-.9zm9.6 10.4c1.9 2.9 1.1 6-2 8.1-5.6 3.6-11.4-3.8-6.9-8.8 2.4-2.6 6.9-2.3 8.9.7zm7.6 20.8c-21.8 21.9-26.3 26.8-26 28.8.2 1.7 1 2.5 2.8 2.7 2.1.2 6.9-4.1 28.8-26.1 21.8-21.9 26.3-26.8 26-28.8-.2-1.7-1-2.5-2.8-2.7-2.1-.2-6.9 4.1-28.8 26.1zm11 10.7c-10.1 6.2-9.4 20.4 1.3 25.1 5.7 2.5 10.4 1.8 15.1-2.3 9.9-8.7 3.6-24.8-9.8-24.8-1.8 0-4.8.9-6.6 2zm11.6 8.8c.6.9 1.2 2.5 1.2 3.6 0 5.2-7.5 7.6-10.4 3.4-2.2-3.1-2-4.5.9-7.4 2.7-2.7 5.9-2.6 8.3.4z"/></svg>