<svg xmlns="http://www.w3.org/2000/svg" fill="none" viewBox="0 0 555 103" height="103" width="555">
<path fill="white" d="M153.086 5.91622L144.236 24.3817L139.753 33.4631C133.107 46.5663 120.278 54.5954 105.979 54.5954H3.74788L0 52.3611L1.00904 52.0152C1.03787 52.0152 3.37309 51.1791 6.54437 48.9303L27.7199 6.04595L25.3847 0.741266H150.016C151.184 0.741266 152.265 1.38993 152.899 2.47105C153.548 3.55217 153.605 4.84951 153.086 5.91622ZM117.02 12.4318C116.905 12.2732 116.703 12.1867 116.53 12.1867H57.1119L55.9587 14.5219L55.9299 14.5652L54.5028 17.477L48.7801 29.0666L48.4774 29.672L41.8465 43.1067H90.6987C97.8773 43.1067 104.306 39.0273 107.579 32.4109L115.262 16.8283L117.092 13.1381C117.193 12.9074 117.164 12.6336 117.02 12.4318ZM175.213 43.0923H269.011L257.508 54.5954H137.115L133.367 52.3611L134.376 52.0152C134.405 52.0152 136.74 51.1791 139.911 48.9303L149.18 30.1477L161.029 6.04595L158.679 0.71243H196.36C200.872 0.71243 205.643 0.712422 210.559 0.726837V0.71243H242.329L289.062 0.683594L263.75 17.3472L263.534 17.1022C260.636 13.9021 256.557 12.1435 252.348 12.1435H190.536L187.711 17.8374L185.707 21.888C187.639 21.9024 188.706 21.8735 193.996 21.888C199.243 21.9024 204.029 21.8735 208.8 21.888C226.141 21.9456 240.282 21.888 241.536 21.888L230.019 33.3622H180.014L175.213 43.0923ZM307.571 43.0923H401.369L389.866 54.5954H269.473L265.725 52.3611L266.734 52.0152C266.763 52.0152 269.098 51.1791 272.269 48.9303L281.538 30.1477L293.387 6.04595L291.037 0.71243H328.718C333.23 0.71243 338.001 0.712422 342.917 0.726837V0.71243H374.687L421.42 0.683594L396.108 17.3472L395.891 17.1022C392.994 13.9021 388.915 12.1435 384.705 12.1435H322.894L320.069 17.8374L318.065 21.888C319.997 21.9024 321.064 21.8735 326.354 21.888C331.601 21.9024 336.387 21.8735 341.158 21.888C358.499 21.9456 372.64 21.888 373.894 21.888L362.377 33.3622H312.371L307.571 43.0923ZM551.14 5.91622L547.969 12.3453L547.954 12.3741C541.309 25.4773 528.494 33.5064 514.18 33.5064H464.305L464.276 33.4631H444.657L439.9 43.0923H439.929L434.293 54.5954H401.801L398.054 52.3611L399.063 52.0152C399.077 52.0152 401.427 51.1791 404.598 48.9303L425.774 6.04595L423.424 0.726837H548.084C549.252 0.726837 550.333 1.37553 550.982 2.45664C551.63 3.55218 551.688 4.8351 551.14 5.91622ZM515.233 12.3453C515.002 12.3453 514.786 12.3453 514.555 12.3453H455.122L454.041 14.5219L454.012 14.5652L452.571 17.477L450.394 21.9024L500.241 21.96C502 21.8159 505.315 21.3113 508.746 19.1779C512.45 16.8716 514.382 13.8877 515.233 12.3453ZM50.481 61.875L38.2428 86.611L30.3002 102.655H5.75155L2.91181 100.968L3.6758 100.709C3.69022 100.709 5.54974 100.002 7.87055 98.3735L23.8999 65.9111L22.1269 61.8893H50.481V61.875ZM122.325 61.875H152.827L132.632 102.655H108.097L110.216 98.3735L119.73 79.1008L90.3527 99.0943H83.1741L73.2999 80.7441L62.4454 102.684H37.9112L35.0715 100.997L35.8355 100.738C37.3058 100.161 38.6896 99.4114 40.0014 98.46L40.0302 98.3879L56.0452 65.9832L54.2433 61.9038H82.6407L92.2411 81.0468L122.325 61.875ZM253.328 65.7958L250.935 70.6681L250.921 70.6825C245.89 80.6143 236.188 86.683 225.348 86.683H187.596L187.581 86.6542H172.72L169.116 93.9482H169.145L164.878 102.655H140.272L137.432 100.968L138.196 100.709C138.21 100.709 139.983 100.075 142.391 98.3735L158.434 65.8967L156.661 61.875H251.021C251.915 61.875 252.722 62.3651 253.213 63.1867C253.688 63.994 253.746 64.9742 253.328 65.7958ZM226.127 70.6536C225.954 70.6536 225.781 70.6536 225.608 70.6536H180.619L179.797 72.3113L179.783 72.3402L178.702 74.5456L177.058 77.8899L214.797 77.9332C216.137 77.8178 218.646 77.4431 221.24 75.8286C224.037 74.0988 225.493 71.8212 226.127 70.6536ZM353.425 65.7814L348.971 74.8051L341.23 90.4742L339.226 94.5392L335.219 102.655H310.67L307.773 100.968L308.537 100.709C308.551 100.709 310.368 100.06 312.833 98.3014L314.894 94.1356L318.584 86.6542H272.831L264.932 102.669H240.383L237.543 100.983L238.307 100.723C238.322 100.709 240.095 100.089 242.502 98.3879L258.546 65.9111L256.773 61.8893H351.133C352.027 61.8893 352.834 62.3795 353.324 63.2011C353.785 63.9939 353.829 64.9742 353.425 65.7814ZM326.094 70.8987C326.008 70.7545 325.864 70.6681 325.705 70.6681H280.716L277.141 77.9043L322.88 77.9476L326.138 71.3744C326.195 71.2158 326.181 71.0284 326.094 70.8987ZM456.953 61.8461L443.951 70.3509L443.763 70.5527H443.662L437.651 74.488L437.478 74.3006C435.417 72.0231 432.563 70.7113 429.593 70.5527H382.212L370.391 94.4094L380.712 94.4383C388.194 94.4527 396.136 94.4671 403.603 94.4815C407.394 94.4959 411.07 94.4959 414.501 94.5103C427.619 94.5536 437.536 94.5968 437.536 94.5968L436.325 96.9032L433.644 102.669H352.272C347.544 102.669 344.257 97.5951 346.318 93.4436L359.941 65.8679L359.897 65.9111L358.124 61.8893H386.493C389.477 61.8893 392.619 61.8893 395.848 61.8893H418.768L456.953 61.8461ZM554.167 61.875L549.929 70.5383H516.977L516.919 70.6536L516.097 72.3113L516.083 72.3402L515.405 73.7096L515.002 74.5313L501.106 102.655H476.572L473.732 100.968L474.496 100.709C474.51 100.709 476.485 99.9015 478.633 98.5033L478.691 98.3735L492.428 70.5383H459.591L455.785 61.875H553.85C553.994 61.875 554.11 61.875 554.167 61.875Z"></path>
</svg>
